<?xml version="1.0" encoding="UTF-8"?> <svg xmlns="http://www.w3.org/2000/svg" width="700" height="500" viewBox="0 0 700 500" fill="none"><path d="M185.712 280.847C169.698 280.847 161 269.324 161 254.886C161 240.301 171.238 228.336 188.049 228.336C192.511 228.336 196.383 228.92 199.748 230.672V240.08C195.286 237.454 191.71 236.939 188.418 236.939C177.014 236.939 172.805 245.331 172.805 254.155C172.805 263.999 178.106 271.802 187.39 271.802C191.488 271.802 194.785 270.671 198.73 268.556L201.574 276.18C195.661 279.9 190.607 280.847 185.712 280.847ZM365.788 280.847C353.941 280.847 347.875 272.17 347.875 261.816C347.875 250.219 355.919 242.558 366.663 242.558C371.416 242.558 373.9 243.505 375.873 244.673V252.992C373.241 251.092 371.12 250.435 368.198 250.435C362.132 250.435 358.224 254.886 358.224 261.305C358.224 267.067 361.251 272.681 368.051 272.681C369.949 272.681 372.466 271.86 375.166 270.476L377.698 277.348C374.633 279.389 369.517 280.847 365.788 280.847ZM398.739 251.603V280.121H388.211V251.603H377.978V243.289H410.296L408.012 251.603H398.739ZM449.651 247.593C449.651 260.426 449.14 267.14 446.803 270.203C445.632 271.734 443.807 272.76 441.903 273.044L444.825 280.847C447.235 280.773 450.97 279.752 453.528 277.2C456.894 273.917 457.985 269.761 458.497 265.383C458.935 261.663 459.23 257.291 459.23 253.423V251.597H467.464V280.115H477.993V243.284H449.651V247.593ZM330.273 242.558C326.179 242.558 323.036 244.531 320.33 246.646L319.159 243.289H310.313V298.063L320.841 294.853V279.316C322.746 280.336 325.23 280.847 327.936 280.847C338.828 280.847 345.406 271.586 345.406 260.647C345.406 248.977 338.754 242.558 330.273 242.558ZM325.378 273.265C323.473 273.265 322.012 272.607 320.841 271.807V254.376C322.086 252.481 325.378 250.219 328.152 250.219C332.393 250.219 334.878 252.918 334.878 260.505C334.878 266.777 332.541 273.265 325.378 273.265ZM425.424 242.558C420.45 242.558 415.634 243.326 410.581 246.588L413.772 252.944C416.251 251.55 419.443 250.466 423.177 250.466C426.827 250.466 430.092 252.076 430.092 255.949V256.575L423.71 256.817C414.395 257.127 408.102 261.158 408.102 268.908C408.102 276.201 413.377 280.847 420.371 280.847C425.118 280.847 428.378 279.068 430.783 276.895L432.419 280.121H440.658V256.201C440.658 246.51 435.219 242.558 425.424 242.558ZM430.092 271.002C429.085 271.776 426.98 272.707 424.185 272.707C420.603 272.707 418.588 270.923 418.588 268.14C418.588 265.346 420.761 263.799 425.271 263.641L430.092 263.489V271.002ZM498.443 255.249H493.031V241.685L482.503 244.5V280.121H495.958C505.754 280.121 514.895 277.49 514.895 267.356C514.895 258.753 507.51 255.249 498.443 255.249ZM496.686 272.854H493.031V262.573H496.544C500.268 262.573 504.366 263.157 504.366 267.53C504.366 271.834 500.853 272.854 496.686 272.854ZM263.014 260.063V259.769C266.448 259.043 269.302 256.78 269.302 251.966C269.302 246.22 264.465 244.126 259.712 243.489C258.256 243.295 255.065 243.289 253.287 243.289H238.238V280.121H250.877C252.275 280.121 254.358 280.115 255.983 280.068C262.629 279.752 270.837 277.385 270.837 268.813C270.837 263.562 267.983 260.937 263.014 260.063ZM248.973 250.303H253.287C257.597 250.303 259.211 251.619 259.211 253.881C259.211 256.722 256.579 257.596 252.19 257.596H248.973V250.303ZM253.066 273.133H248.751V264.089H252.554C257.597 264.089 260.303 265.257 260.303 268.54C260.303 272.039 256.721 273.133 253.066 273.133ZM234.773 261.379C234.773 249.998 227.752 242.558 217.662 242.558C206.621 242.558 200.408 251.455 200.408 261.816C200.408 271.513 205.82 280.847 218.98 280.847C223.437 280.847 228.406 279.831 233.528 276.616L231.186 269.982C227.019 271.955 224.313 272.607 220.732 272.607C215.831 272.607 211.153 269.545 210.931 264.583H234.773V261.379ZM210.715 257.369C210.715 254.013 213.131 250.219 217.366 250.219C221.834 250.219 223.801 253.865 224.023 257.369H210.715ZM307.301 261.379C307.301 249.998 300.28 242.558 290.19 242.558C279.15 242.558 272.936 251.455 272.936 261.816C272.936 271.513 278.348 280.847 291.508 280.847C295.966 280.847 300.94 279.831 306.056 276.616L303.714 269.982C299.552 271.955 296.841 272.607 293.26 272.607C288.365 272.607 283.686 269.545 283.464 264.583H307.301V261.379ZM283.243 257.369C283.243 254.013 285.659 250.219 289.894 250.219C294.357 250.219 296.33 253.865 296.551 257.369H283.243Z" fill="#002F6C"></path> <path d="M533.636 217.269C533.035 217.685 532.418 218.011 531.79 218.211C529.707 218.868 527.138 218.263 524.833 217.316C523.187 216.637 521.462 215.759 519.653 214.649C520.597 212.349 521.483 209.724 522.238 206.819C523.409 202.31 523.968 198.338 524.084 194.849C524.158 192.692 524.052 190.719 523.815 188.925C523.488 186.457 522.728 183.947 521.114 182.469C520.602 182.011 519.98 181.627 519.284 181.311C522.58 180.953 525.508 180.927 528.093 181.116C530.809 181.348 533.573 182.016 535.187 183.595C536.801 185.173 537.513 187.925 537.798 190.624C538.062 193.202 538.083 196.122 537.777 199.427C537.466 202.684 536.833 206.304 535.794 210.318H535.799C535.145 212.802 534.396 215.175 533.636 217.269ZM493.828 215.227C493.764 214.501 493.791 213.801 493.933 213.16C494.403 211.029 496.212 209.119 498.19 207.593C499.604 206.514 501.223 205.462 503.095 204.452C504.62 206.419 506.455 208.492 508.602 210.597C511.931 213.865 515.101 216.332 518.071 218.174C519.906 219.316 521.668 220.21 523.345 220.905C525.65 221.852 528.209 222.457 530.303 221.799C530.957 221.583 531.6 221.241 532.223 220.799C530.883 223.825 529.443 226.371 527.987 228.508C526.426 230.739 524.469 232.796 522.29 233.396C520.112 234.001 517.369 233.243 514.885 232.138C512.516 231.081 509.968 229.634 507.252 227.718C504.583 225.824 501.75 223.467 498.786 220.557C496.956 218.763 495.262 216.932 493.828 215.227ZM515.449 181.853C516.114 182.163 516.704 182.537 517.19 182.979C518.804 184.452 519.558 186.973 519.896 189.44C520.128 191.198 520.228 193.129 520.17 195.249C517.696 195.581 514.98 196.128 512.078 196.933C507.579 198.174 503.85 199.679 500.764 201.326C498.855 202.342 497.193 203.415 495.758 204.52C493.78 206.035 491.976 207.945 491.502 210.081C491.359 210.755 491.333 211.481 491.412 212.239C489.455 209.571 487.962 207.051 486.839 204.725C485.678 202.263 484.876 199.542 485.441 197.359C486.005 195.175 488.036 193.181 490.236 191.592C492.34 190.072 494.867 188.593 497.889 187.209C500.87 185.852 504.335 184.584 508.339 183.479C510.818 182.784 513.255 182.242 515.449 181.853Z" fill="#002F6C"></path> </svg>
